<svg width="207" height="71" viewBox="0 0 207 71" fill="none" xmlns="http://www.w3.org/2000/svg">
<path fill-rule="evenodd" clip-rule="evenodd" d="M54.9968 56.6991C54.9805 56.6874 54.9642 56.6757 54.948 56.664C48.788 52.2035 47.4259 43.5722 51.9057 37.3856C56.3855 31.1989 65.0108 29.7995 71.1708 34.26C77.3308 38.7205 78.6929 47.3517 74.2131 53.5384C73.6976 54.2503 73.1273 54.8987 72.5122 55.4822C64.4696 64.312 54.7074 64.1623 50.5567 62.831L54.9968 56.6991ZM66.8421 48.201C65.3228 50.2991 62.3977 50.7737 60.3087 49.261C58.2197 47.7483 57.7577 44.8212 59.277 42.7231C60.7962 40.625 63.7213 40.1505 65.8103 41.6631C67.8994 43.1758 68.3613 46.1029 66.8421 48.201Z" fill="black"/>
<path d="M54.9968 56.6991L55.4018 56.9924L55.6963 56.5857L55.2883 56.2929L54.9968 56.6991ZM72.5122 55.4822L72.1681 55.1194L72.1548 55.132L72.1425 55.1455L72.5122 55.4822ZM50.5567 62.831L50.1517 62.5378L49.7471 63.0965L50.404 63.3071L50.5567 62.831ZM54.6547 57.0689C54.6716 57.0811 54.6884 57.0933 54.7053 57.1054L55.2883 56.2929C55.2726 56.2816 55.2569 56.2703 55.2412 56.259L54.6547 57.0689ZM51.5007 37.0923C46.8602 43.501 48.2694 52.4453 54.6547 57.0689L55.2412 56.259C49.3065 51.9616 47.9916 43.6435 52.3107 37.6788L51.5007 37.0923ZM71.464 33.855C65.0787 29.2314 56.1413 30.6836 51.5007 37.0923L52.3107 37.6788C56.6297 31.7141 64.9428 30.3677 70.8775 34.665L71.464 33.855ZM74.618 53.8317C79.2586 47.423 77.8493 38.4787 71.464 33.855L70.8775 34.665C76.8122 38.9623 78.1271 47.2805 73.8081 53.2452L74.618 53.8317ZM72.8562 55.8449C73.4937 55.2403 74.0844 54.5686 74.618 53.8317L73.8081 53.2452C73.3108 53.9319 72.7609 54.5571 72.1681 55.1194L72.8562 55.8449ZM72.1425 55.1455C64.2512 63.8092 54.7029 63.6357 50.7094 62.3549L50.404 63.3071C54.7119 64.6888 64.6879 64.8148 72.8818 55.8188L72.1425 55.1455ZM50.9616 63.1243L55.4018 56.9924L54.5918 56.4059L50.1517 62.5378L50.9616 63.1243ZM60.0155 49.666C62.3298 51.3418 65.5671 50.8144 67.247 48.4943L66.4371 47.9078C65.0786 49.7839 62.4657 50.2056 60.6019 48.856L60.0155 49.666ZM58.872 42.4299C57.192 44.75 57.7011 47.9901 60.0155 49.666L60.6019 48.856C58.7382 47.5065 58.3235 44.8924 59.6819 43.0163L58.872 42.4299ZM66.1036 41.2582C63.7892 39.5823 60.552 40.1098 58.872 42.4299L59.6819 43.0163C61.0404 41.1403 63.6534 40.7186 65.5171 42.0681L66.1036 41.2582ZM67.247 48.4943C68.927 46.1742 68.4179 42.934 66.1036 41.2582L65.5171 42.0681C67.3808 43.4177 67.7956 46.0317 66.4371 47.9078L67.247 48.4943Z" fill="black"/>
<path fill-rule="evenodd" clip-rule="evenodd" d="M53.2567 16.3829C53.2548 16.4026 53.2529 16.4223 53.2509 16.442C52.4978 24.01 45.7257 29.532 38.1249 28.7756C30.5242 28.0193 24.973 21.2711 25.7261 13.7031C26.4792 6.13507 33.2513 0.613144 40.8521 1.36949C41.7299 1.45684 42.5803 1.62409 43.3968 1.8633C55.0684 4.36992 59.8511 12.877 60.7901 17.1325L53.2567 16.3829ZM39.9509 10.4255C42.5286 10.682 44.4112 12.9706 44.1558 15.5371C43.9004 18.1036 41.6037 19.9763 39.0261 19.7198C36.4484 19.4633 34.5659 17.1748 34.8213 14.6082C35.0767 12.0417 37.3733 10.169 39.9509 10.4255Z" fill="black"/>
<path d="M53.2567 16.3829L53.3062 15.8853L52.8065 15.8356L52.7589 16.3355L53.2567 16.3829ZM43.3968 1.8633L43.2563 2.34313L43.2739 2.34829L43.2919 2.35215L43.3968 1.8633ZM60.7901 17.1325L60.7406 17.63L61.427 17.6983L61.2784 17.0248L60.7901 17.1325ZM53.7484 16.4916C53.7505 16.4711 53.7525 16.4507 53.7544 16.4303L52.7589 16.3355C52.7571 16.3545 52.7552 16.3735 52.7534 16.3925L53.7484 16.4916ZM38.0754 29.2732C45.9489 30.0566 52.9678 24.3364 53.7484 16.4916L52.7534 16.3925C52.0278 23.6837 45.5024 29.0073 38.1744 28.2781L38.0754 29.2732ZM25.2286 13.6536C24.448 21.4984 30.2019 28.4897 38.0754 29.2732L38.1744 28.2781C30.8464 27.5489 25.4981 21.0438 26.2237 13.7526L25.2286 13.6536ZM40.9016 0.871948C33.0281 0.0884591 26.0092 5.80875 25.2286 13.6536L26.2237 13.7526C26.9492 6.46139 33.4746 1.13783 40.8026 1.86703L40.9016 0.871948ZM43.5374 1.38346C42.6913 1.13559 41.8104 0.962377 40.9016 0.871948L40.8026 1.86703C41.6494 1.9513 42.4693 2.1126 43.2563 2.34313L43.5374 1.38346ZM43.2919 2.35215C54.7438 4.81161 59.3984 13.1459 60.3019 17.2402L61.2784 17.0248C60.3038 12.6081 55.393 3.92824 43.5018 1.37444L43.2919 2.35215ZM60.8396 16.635L53.3062 15.8853L53.2072 16.8804L60.7406 17.63L60.8396 16.635ZM44.6533 15.5866C44.9362 12.7433 42.8509 10.2116 40.0005 9.92799L39.9014 10.9231C42.2063 11.1524 43.8861 13.1979 43.6582 15.4876L44.6533 15.5866ZM38.9766 20.2173C41.827 20.501 44.3704 18.4299 44.6533 15.5866L43.6582 15.4876C43.4304 17.7773 41.3805 19.4516 39.0756 19.2222L38.9766 20.2173ZM34.3237 14.5587C34.0408 17.4021 36.1262 19.9337 38.9766 20.2173L39.0756 19.2222C36.7707 18.9929 35.091 16.9475 35.3188 14.6577L34.3237 14.5587ZM40.0005 9.92799C37.1501 9.64434 34.6067 11.7154 34.3237 14.5587L35.3188 14.6577C35.5467 12.368 37.5965 10.6937 39.9014 10.9231L40.0005 9.92799Z" fill="black"/>
<path fill-rule="evenodd" clip-rule="evenodd" d="M15.4991 37.6294C15.5149 37.6173 15.5307 37.6053 15.5465 37.5933C21.6052 32.9961 30.2596 34.2022 34.8767 40.2872C39.4937 46.3721 38.325 55.0317 32.2663 59.6288C26.2076 64.2259 17.5532 63.0198 12.9362 56.9349C12.4034 56.2328 11.9477 55.4964 11.5677 54.736C5.4619 44.4759 8.44266 35.1817 10.9227 31.598L15.4991 37.6294ZM20.1862 51.4339C18.6204 49.3703 19.0167 46.4336 21.0714 44.8746C23.1261 43.3155 26.0611 43.7246 27.6269 45.7882C29.1926 47.8517 28.7963 50.7884 26.7416 52.3475C24.6869 53.9065 21.7519 53.4975 20.1862 51.4339Z" fill="black"/>
<path d="M15.4991 37.6294L15.1008 37.9316L15.4043 38.3316L15.803 38.0264L15.4991 37.6294ZM11.5677 54.736L12.0149 54.5124L12.0067 54.496L11.9973 54.4803L11.5677 54.736ZM10.9227 31.598L11.321 31.2957L10.9041 30.7462L10.5115 31.3134L10.9227 31.598ZM15.2443 37.195C15.2279 37.2074 15.2115 37.2199 15.1952 37.2324L15.803 38.0264C15.8183 38.0148 15.8335 38.0032 15.8488 37.9916L15.2443 37.195ZM35.275 39.985C30.4923 33.6817 21.5246 32.4297 15.2443 37.195L15.8488 37.9916C21.6859 33.5626 30.027 34.7228 34.4784 40.5894L35.275 39.985ZM32.5685 60.0271C38.8489 55.2618 40.0577 46.2882 35.275 39.985L34.4784 40.5894C38.9297 46.456 37.8012 54.8015 31.9641 59.2305L32.5685 60.0271ZM12.5378 57.2371C17.3206 63.5404 26.2882 64.7924 32.5685 60.0271L31.9641 59.2305C26.127 63.6595 17.7858 62.4992 13.3345 56.6327L12.5378 57.2371ZM11.1204 54.9595C11.5142 55.7475 11.9863 56.5102 12.5378 57.2371L13.3345 56.6327C12.8205 55.9553 12.3812 55.2453 12.0149 54.5124L11.1204 54.9595ZM11.9973 54.4803C6.00645 44.4133 8.94773 35.3306 11.3338 31.8825L10.5115 31.3134C7.9376 35.0329 4.91734 44.5386 11.138 54.9917L11.9973 54.4803ZM10.5244 31.9002L15.1008 37.9316L15.8975 37.3272L11.321 31.2957L10.5244 31.9002ZM20.7692 44.4763C18.4929 46.2034 18.0564 49.4542 19.7878 51.7361L20.5845 51.1317C19.1844 49.2864 19.5406 46.6638 21.3736 45.2729L20.7692 44.4763ZM28.0252 45.4859C26.2937 43.204 23.0455 42.7491 20.7692 44.4763L21.3736 45.2729C23.2067 43.882 25.8284 44.2452 27.2285 46.0904L28.0252 45.4859ZM27.0438 52.7458C29.3201 51.0186 29.7566 47.7679 28.0252 45.4859L27.2285 46.0904C28.6286 47.9356 28.2725 50.5583 26.4394 51.9492L27.0438 52.7458ZM19.7878 51.7361C21.5193 54.0181 24.7675 54.473 27.0438 52.7458L26.4394 51.9492C24.6063 53.34 21.9846 52.9769 20.5845 51.1317L19.7878 51.7361Z" fill="black"/>
<path d="M106.248 33H101.854L93.2988 18.9668V33H88.9043V11.6719H93.2988L101.868 25.7344V11.6719H106.248V33ZM122.391 28.6055H114.686L113.221 33H108.548L116.487 11.6719H120.56L128.543 33H123.87L122.391 28.6055ZM115.872 25.0459H121.204L118.523 17.0625L115.872 25.0459ZM138.431 25.1924H134.93V33H130.535V11.6719H138.46C140.979 11.6719 142.923 12.2334 144.29 13.3564C145.657 14.4795 146.341 16.0664 146.341 18.1172C146.341 19.5723 146.023 20.7881 145.389 21.7646C144.764 22.7314 143.812 23.5029 142.532 24.0791L147.146 32.7949V33H142.43L138.431 25.1924ZM134.93 21.6328H138.475C139.578 21.6328 140.433 21.3545 141.038 20.7979C141.644 20.2314 141.946 19.4551 141.946 18.4688C141.946 17.4629 141.658 16.6719 141.082 16.0957C140.516 15.5195 139.642 15.2314 138.46 15.2314H134.93V21.6328ZM165.838 11.6719V25.7197C165.838 28.0537 165.105 29.8994 163.641 31.2568C162.186 32.6143 160.193 33.293 157.664 33.293C155.174 33.293 153.196 32.6338 151.731 31.3154C150.267 29.9971 149.52 28.1855 149.49 25.8809V11.6719H153.885V25.749C153.885 27.1455 154.217 28.166 154.881 28.8105C155.555 29.4453 156.482 29.7627 157.664 29.7627C160.135 29.7627 161.39 28.4639 161.429 25.8662V11.6719H165.838ZM185.496 15.2314H178.963V33H174.568V15.2314H168.123V11.6719H185.496V15.2314ZM205.125 22.8193C205.125 24.9189 204.754 26.7598 204.012 28.3418C203.27 29.9238 202.205 31.1445 200.818 32.0039C199.441 32.8633 197.859 33.293 196.072 33.293C194.305 33.293 192.728 32.8682 191.341 32.0186C189.954 31.1689 188.88 29.958 188.118 28.3857C187.356 26.8037 186.971 24.9873 186.961 22.9365V21.8818C186.961 19.7822 187.337 17.9365 188.089 16.3447C188.851 14.7432 189.92 13.5176 191.297 12.668C192.684 11.8086 194.266 11.3789 196.043 11.3789C197.82 11.3789 199.397 11.8086 200.774 12.668C202.161 13.5176 203.23 14.7432 203.982 16.3447C204.744 17.9365 205.125 19.7773 205.125 21.8672V22.8193ZM200.672 21.8525C200.672 19.6162 200.271 17.917 199.471 16.7549C198.67 15.5928 197.527 15.0117 196.043 15.0117C194.568 15.0117 193.431 15.5879 192.63 16.7402C191.829 17.8828 191.424 19.5625 191.414 21.7793V22.8193C191.414 24.9971 191.814 26.6865 192.615 27.8877C193.416 29.0889 194.568 29.6895 196.072 29.6895C197.547 29.6895 198.68 29.1133 199.471 27.9609C200.262 26.7988 200.662 25.1094 200.672 22.8926V21.8525Z" fill="black"/>
<path d="M94.6577 50.2534C94.6577 49.7847 94.4917 49.4233 94.1597 49.1694C93.8325 48.9155 93.2393 48.6592 92.3799 48.4004C91.5205 48.1416 90.8369 47.8535 90.3291 47.5361C89.3574 46.9258 88.8716 46.1299 88.8716 45.1484C88.8716 44.2891 89.2207 43.5811 89.9189 43.0244C90.6221 42.4678 91.5327 42.1895 92.6509 42.1895C93.3931 42.1895 94.0547 42.3262 94.6357 42.5996C95.2168 42.873 95.6733 43.2637 96.0054 43.7715C96.3374 44.2744 96.5034 44.8335 96.5034 45.4487H94.6577C94.6577 44.8921 94.4819 44.4575 94.1304 44.145C93.7837 43.8276 93.2856 43.6689 92.6362 43.6689C92.0308 43.6689 91.5596 43.7983 91.2227 44.0571C90.8906 44.3159 90.7246 44.6772 90.7246 45.1411C90.7246 45.5317 90.9053 45.8589 91.2666 46.1226C91.6279 46.3813 92.2236 46.6353 93.0537 46.8843C93.8838 47.1284 94.5503 47.4092 95.0532 47.7266C95.5562 48.0391 95.9248 48.4004 96.1592 48.8105C96.3936 49.2158 96.5107 49.6919 96.5107 50.2388C96.5107 51.1274 96.1689 51.8354 95.4854 52.3628C94.8066 52.8853 93.8838 53.1465 92.7168 53.1465C91.9453 53.1465 91.2349 53.0049 90.5854 52.7217C89.9409 52.4336 89.438 52.0381 89.0767 51.5352C88.7202 51.0322 88.542 50.4463 88.542 49.7773H90.395C90.395 50.3828 90.5952 50.8516 90.9956 51.1836C91.396 51.5156 91.9697 51.6816 92.7168 51.6816C93.3613 51.6816 93.8447 51.5522 94.167 51.2935C94.4941 51.0298 94.6577 50.6831 94.6577 50.2534ZM111.112 42.3359V49.4624C111.112 50.5952 110.748 51.4937 110.021 52.1577C109.298 52.8169 108.334 53.1465 107.128 53.1465C105.907 53.1465 104.938 52.8218 104.22 52.1724C103.502 51.5181 103.143 50.6123 103.143 49.4551V42.3359H104.989V49.4697C104.989 50.1826 105.17 50.7271 105.531 51.103C105.892 51.479 106.425 51.667 107.128 51.667C108.553 51.667 109.266 50.915 109.266 49.4111V42.3359H111.112ZM123.846 50.2534C123.846 49.7847 123.68 49.4233 123.348 49.1694C123.02 48.9155 122.427 48.6592 121.568 48.4004C120.708 48.1416 120.025 47.8535 119.517 47.5361C118.545 46.9258 118.059 46.1299 118.059 45.1484C118.059 44.2891 118.409 43.5811 119.107 43.0244C119.81 42.4678 120.721 42.1895 121.839 42.1895C122.581 42.1895 123.243 42.3262 123.824 42.5996C124.405 42.873 124.861 43.2637 125.193 43.7715C125.525 44.2744 125.691 44.8335 125.691 45.4487H123.846C123.846 44.8921 123.67 44.4575 123.318 44.145C122.972 43.8276 122.474 43.6689 121.824 43.6689C121.219 43.6689 120.747 43.7983 120.411 44.0571C120.079 44.3159 119.913 44.6772 119.913 45.1411C119.913 45.5317 120.093 45.8589 120.454 46.1226C120.816 46.3813 121.412 46.6353 122.242 46.8843C123.072 47.1284 123.738 47.4092 124.241 47.7266C124.744 48.0391 125.113 48.4004 125.347 48.8105C125.581 49.2158 125.699 49.6919 125.699 50.2388C125.699 51.1274 125.357 51.8354 124.673 52.3628C123.995 52.8853 123.072 53.1465 121.905 53.1465C121.133 53.1465 120.423 53.0049 119.773 52.7217C119.129 52.4336 118.626 52.0381 118.265 51.5352C117.908 51.0322 117.73 50.4463 117.73 49.7773H119.583C119.583 50.3828 119.783 50.8516 120.183 51.1836C120.584 51.5156 121.158 51.6816 121.905 51.6816C122.549 51.6816 123.033 51.5522 123.355 51.2935C123.682 51.0298 123.846 50.6831 123.846 50.2534ZM140.966 53H139.121V48.2612H134.353V53H132.5V42.3359H134.353V46.7744H139.121V42.3359H140.966V53ZM150.294 53H148.449V42.3359H150.294V53ZM166.657 53V42.3359H170.312C171.518 42.3359 172.436 42.5776 173.066 43.061C173.696 43.5444 174.011 44.2646 174.011 45.2217C174.011 45.71 173.879 46.1494 173.615 46.54C173.352 46.9307 172.966 47.2334 172.458 47.4482C173.034 47.6045 173.479 47.8999 173.791 48.3345C174.109 48.7642 174.267 49.2817 174.267 49.8872C174.267 50.8882 173.945 51.6572 173.3 52.1943C172.661 52.7314 171.743 53 170.547 53H166.657ZM168.51 48.188V51.5205H170.569C171.15 51.5205 171.604 51.3765 171.931 51.0884C172.258 50.8003 172.422 50.3999 172.422 49.8872C172.422 48.7788 171.855 48.2124 170.722 48.188H168.51ZM168.51 46.8257H170.327C170.903 46.8257 171.352 46.6963 171.675 46.4375C172.002 46.1738 172.165 45.8027 172.165 45.3242C172.165 44.7969 172.014 44.416 171.711 44.1816C171.413 43.9473 170.947 43.8301 170.312 43.8301H168.51V46.8257ZM187.265 50.5171H183.134L182.269 53H180.343L184.371 42.3359H186.034L190.07 53H188.136L187.265 50.5171ZM183.654 49.0229H186.745L185.199 44.5991L183.654 49.0229ZM200.379 48.8911H198.314V53H196.461V42.3359H200.211C201.441 42.3359 202.391 42.6118 203.06 43.1636C203.729 43.7153 204.063 44.5137 204.063 45.5586C204.063 46.2715 203.89 46.8696 203.543 47.353C203.201 47.8315 202.723 48.2002 202.108 48.459L204.503 52.9048V53H202.518L200.379 48.8911ZM198.314 47.4043H200.218C200.843 47.4043 201.331 47.248 201.683 46.9355C202.034 46.6182 202.21 46.186 202.21 45.6392C202.21 45.0679 202.046 44.626 201.719 44.3135C201.397 44.001 200.914 43.8398 200.269 43.8301H198.314V47.4043Z" fill="black"/>
</svg>
